<svg xmlns="http://www.w3.org/2000/svg" viewBox="0 0 64 64">
  <rect width="64" height="64" rx="10" fill="#07070C"/>
  <g fill="#C4A55A" transform="translate(5.76 43) scale(0.032 -0.032)">
    <path d="M376 722Q441 722 481 702.5Q521 683 556 657Q569 647 576 647Q595 647 601 708H624Q622 671 621 618Q620 565 620 478H597Q590 520 580 559Q570 598 547 626Q518 663 471 683.5Q424 704 374 704Q324 704 283.5 679.5Q243 655 214 609Q185 563 169.5 498.5Q154 434 154 353Q154 173 212 89.5Q270 6 392 6Q428 6 454.5 16.5Q481 27 496 37Q515 50 520 61.5Q525 73 525 92V188Q525 229 517 249Q509 269 487.5 276Q466 283 424 284V304Q442 303 466 302.5Q490 302 516.5 301.5Q543 301 565 301Q598 301 624.5 302Q651 303 669 304V284Q647 283 636 277Q625 271 621.5 253Q618 235 618 198V0H598Q597 17 590.5 37Q584 57 571 57Q565 57 559 54Q553 51 538 40Q505 15 468 0.5Q431 -14 382 -14Q279 -14 205.5 28.5Q132 71 93 151Q54 231 54 342Q54 459 96 544Q138 629 210.5 675.5Q283 722 376 722Z"/>
    <path d="M541 708Q537 673 535.5 640Q534 607 534 590Q534 572 535 555.5Q536 539 537 528H514Q508 587 497 621.5Q486 656 459.5 670.5Q433 685 380 685H297Q263 685 245.5 679.5Q228 674 222 656.5Q216 639 216 602V106Q216 70 222 52Q228 34 245.5 28.5Q263 23 297 23H370Q433 23 465.5 40Q498 57 512.5 95.5Q527 134 534 200H557Q554 173 554 128Q554 109 555.5 73.5Q557 38 561 0Q510 2 446 2.5Q382 3 332 3Q310 3 275.5 3Q241 3 201 2.5Q161 2 120 1.5Q79 1 42 0V20Q76 22 93.5 28Q111 34 117 52Q123 70 123 106V602Q123 639 117 656.5Q111 674 93.5 680.5Q76 687 42 688V708Q79 707 120 706.5Q161 706 201 705.5Q241 705 275.5 705Q310 705 332 705Q378 705 436.5 705.5Q495 706 541 708ZM369 366Q369 366 369 356Q369 346 369 346H186Q186 346 186 356Q186 366 186 366ZM398 498Q394 441 394.5 411Q395 381 395 356Q395 331 396 301Q397 271 401 214H378Q374 246 368.5 276.5Q363 307 344.5 326.5Q326 346 282 346V366Q315 366 332.5 379.5Q350 393 358 414Q366 435 369 457.5Q372 480 375 498Z" transform="translate(523 0)"/>
    <path d="M371 722Q437 722 479.5 702.5Q522 683 555 657Q575 642 585.5 653.5Q596 665 600 708H623Q621 671 620 618Q619 565 619 478H596Q589 521 583 546.5Q577 572 568.5 590Q560 608 546 626Q515 667 468 685.5Q421 704 369 704Q320 704 280.5 679.5Q241 655 212.5 609Q184 563 168.5 498Q153 433 153 352Q153 268 170 203.5Q187 139 217.5 95Q248 51 289.5 28.5Q331 6 379 6Q424 6 473 24Q522 42 550 82Q572 111 580.5 145Q589 179 596 240H619Q619 149 620 93.5Q621 38 623 0H600Q596 43 586.5 54Q577 65 555 51Q518 25 476.5 5.5Q435 -14 370 -14Q275 -14 203.5 29Q132 72 92.5 153Q53 234 53 348Q53 460 94 544Q135 628 206.5 675Q278 722 371 722Z" transform="translate(952 0)"/>
  </g>
</svg>
